<?xml version="1.0" encoding="UTF-8"?>
<svg id="_Слой_1" data-name="Слой_1" xmlns="http://www.w3.org/2000/svg" version="1.1" viewBox="0 0 752.9620456 256.2264996">
  <!-- Generator: Adobe Illustrator 30.0.0, SVG Export Plug-In . SVG Version: 2.1.1 Build 123)  -->
  <g>
    <path d="M703.4310298,193.1830899c1.0626833,4.2011772,2.8642565-1.5611482,3.8129676-3.1744992,14.0962987-23.9717621,22.1407489-40.4385694,20.1811089-69.7240953-.3482183-5.2038929-4.2651207-18.5740971-3.8364675-21.6984542.3103843-2.2623214,9.6399365-26.1723141,11.3277561-30.6451512,1.6414458-4.3499432,2.9113417-1.0479572,4.3175866,1.6107173,37.1850084,70.3027108-4.8646433,163.4911143-81.7015608,182.5281076-124.8137126,30.9236483-212.975888-118.1908315-127.2769681-212.1115186,37.0515514-40.6061962,95.5811711-51.2445973,145.2101347-27.4324162-.0083971,2.3180514-14.8210911,6.8989552-17.6204601,8.3088835-2.7647177,1.3924758-10.7406001,7.659823-12.0312865,8.0042959-1.825425.48719-14.1488376-2.5867109-17.7458108-2.8289297-90.7723852-6.112578-139.588233,102.8634263-80.8466512,169.6684206l5.5042851,4.9800194v-35.4307992c.4174337-.6616952.9794845-1.0234299,1.7078554-1.2862934,9.1042645-3.2856587,24.361321-3.7709159,34.2219007-6.1990867v65.3723197c5.88083,3.7976028,13.3636427,4.4094828,19.9609756,6.4873294v-79.8440546c10.2789595-3.112019,21.2313869-7.53997,30.6730717-12.6966763,1.808596-.9877896,2.5691911-4.2313441,6.2547331-3.2721346v94.8148148l21.0039994-6.6468606-.0602611-101.4330721c12.9999076-8.6563692,24.8250437-19.0456136,36.943091-28.6530108v101.3021442Z" fill="#165a30"/>
    <path d="M728.3766714,15.0357783l-9.9847585,68.8616785c-5.2559579,1.2020496-13.3089914-14.4325172-16.3200409-13.9004677-1.1489583.2030198-14.0892977,14.1858869-16.5916138,16.4087842-35.3137243,31.3704513-93.0091248,59.4456036-140.2541995,63.3461127-3.7170353.306875-10.3127445.3369783-4.841151-3.8414161,4.6501217-3.5510756,13.7725558-5.9759829,19.073447-8.8265619,8.574212-4.6108226,18.1488125-10.0981296,26.872875-15.09051,33.6828757-19.275163,66.8035177-41.8946866,91.1469524-72.5341285-3.7588618-2.699435-13.5178079-9.6650773-15.5014853-13.4438777-.6770037-1.2896561-.7099347-1.669984.5474552-2.5074552l65.8525194-18.4721583Z" fill="#165a30"/>
  </g>
  <g>
    <path d="M190.4339566,107.8497566c-2.3979106-.5256248-1.6147944.4015543-2.2296851,1.3013987-20.2090805,29.5744046-34.1196487,67.4430463-53.8090389,97.8565701-4.1788635,4.9688638-17.4547363,4.4202884-21.2535562-1.4054927-17.0794929-27.8779417-30.6669178-58.4196284-47.2922051-86.4465058-2.2804246-3.8443354-4.5936737-8.7046795-8.1560025-11.3059703v135.2358674c0,.354784-4.1568916,4.5575216-5.5115,4.4689963-14.4815349-.963282-30.6803696,1.3588315-44.9378145.070083-2.8651932-.2589885-5.1337171-.5635853-6.9407539-3.0397397L0,18.7175813c1.1781828-2.5534791,3.6477919-3.4044089,6.2711879-3.709307,10.2002016-1.1854944,35.6273207-1.0603939,45.9862142-.030433,6.2594894.6223666,9.068192,2.5362055,12.4458179,7.5151721,20.7185738,30.5413009,36.159549,69.3410749,57.0281335,99.664353.6785213.9859313,1.3834473,1.8984341,2.3323592,2.6404968.9489108-.7420637,1.6538397-1.6545642,2.3323593-2.6404968,20.562237-29.8782533,35.9018635-68.1055102,56.2483061-98.4480805,3.5583879-5.3066099,5.270764-7.8957168,12.2778328-8.6812082,10.715019-1.2011521,35.0574128-1.036495,45.9610602-.0448859,2.8330811.2576485,5.1127287.5427201,6.9407539,3.0397397l.2828024,224.8487336c-1.0318755,3.9821127-3.6227636,4.4229255-7.2252849,4.7513095-9.2941158.8471954-36.2583536,1.2732451-44.8954473-.1089931-1.9704371-.3153391-5.5521386-2.473565-5.5521386-4.4283576V107.8497566Z" fill="#165a30"/>
    <path d="M420.9832249,66.9296786h-85.8321951v175.1578947c0,3.2902837-5.5788413,5.2780975-8.4358945,5.5367989-11.1301291,1.0078146-37.1248229,1.2577976-47.9765031-.0248786-3.2075402-.3791335-5.710402-1.8074823-7.2562123-4.7203821l-.2582769-222.4105547c.0896053-2.9615563,2.4941628-5.3920822,5.4892683-5.4892788l204.2009128.5026179,3.4472619,2.5410356.2835074,223.8513879c-.8643389,3.0480126-3.1791676,5.1512864-6.3329519,5.6436442-8.9015488,1.3896788-40.5225007,1.1544058-49.8661849.0815226-3.979495-.4569432-7.4627317-3.3325404-7.4627317-7.5080144V66.9296786Z" fill="#165a30"/>
  </g>
</svg>