<?xml version="1.0" encoding="UTF-8" standalone="no"?>
<svg xmlns="http://www.w3.org/2000/svg" width="1800" height="700" viewBox="0 0 1800 700">
  <defs>
    <style>
      .green { fill: #1B7D3A; }
      .stroke-green { stroke: #1B7D3A; stroke-width: 40; fill: none; stroke-linecap: round; stroke-linejoin: round; }
    </style>
  </defs>

  <!-- Letter лю -->
  <path class="green" d="
    M 80 540
    L 80 160
    L 200 160
    L 360 410
    L 520 160
    L 640 160
    L 640 540
    L 540 540
    L 540 320
    L 400 520
    L 260 320
    L 260 540
    Z" />

  <!-- Letter лЪ -->
  <path class="green" d="
    M 760 160
    L 1180 160
    L 1180 540
    L 1060 540
    L 1060 260
    L 880 260
    L 880 540
    L 760 540
    Z" />

  <!-- Emblem as 'O': circle outline + bars + arrow -->
  <!-- Circle outline -->
  <circle cx="1470" cy="350" r="170" class="stroke-green" />

  <!-- Bars -->
  <rect x="1360" y="420" width="40" height="110" class="green" rx="8" />
  <rect x="1420" y="380" width="40" height="150" class="green" rx="8" />
  <rect x="1480" y="340" width="40" height="190" class="green" rx="8" />

  <!-- Upward arrow (curve + head) -->
  <path class="stroke-green" d="M1330,420 C1385,360 1450,310 1520,290" />
  <polygon class="green" points="1570,275 1515,305 1542,324" />

</svg>
